<svg width="85" height="27" viewBox="0 0 85 27" fill="none" xmlns="http://www.w3.org/2000/svg">
<g clip-path="url(#clip0_12_9)">
<path d="M4.64062 19.7109C4.54688 20.6484 4.03125 21.1562 3.09375 21.2344C2.65625 21.2344 2.27344 21.0938 1.94531 20.8125C1.63281 20.5156 1.47656 20.1484 1.47656 19.7109V8.64844C1.49219 8.21094 1.65625 7.85156 1.96875 7.57031C2.28125 7.27344 2.65625 7.125 3.09375 7.125H12.9375C14.3125 7.17188 15.3516 7.47656 16.0547 8.03906C16.7578 8.58594 17.2656 9.21094 17.5781 9.91406C17.8906 10.6172 18.0469 11.3281 18.0469 12.0469C18.0469 12.7969 17.8906 13.5234 17.5781 14.2266C17.2812 14.9297 16.7734 15.5625 16.0547 16.125C15.3516 16.6719 14.4531 16.9375 13.3594 16.9219H7.45312C7.01562 16.9219 6.64844 16.7656 6.35156 16.4531C6.03906 16.1562 5.88281 15.7891 5.88281 15.3516C5.88281 14.9141 6.03125 14.5469 6.32812 14.25C6.64062 13.9375 7.01562 13.7812 7.45312 13.7812H13.5C13.7969 13.7812 14.0391 13.6875 14.2266 13.5C14.4297 13.2969 14.5781 13.0703 14.6719 12.8203C14.7656 12.5547 14.8125 12.2891 14.8125 12.0234C14.8125 11.7734 14.7656 11.5234 14.6719 11.2734C14.5781 11.0078 14.4297 10.7812 14.2266 10.5938C14.0391 10.3906 13.7969 10.2812 13.5 10.2656H5.25C4.84375 10.2812 4.64062 10.4844 4.64062 10.875V19.7109ZM19.1034 13.2656C19.4003 12.5156 19.9003 11.8438 20.6034 11.25C21.3222 10.6406 22.2284 10.3281 23.3222 10.3125H32.1347C32.5722 10.3125 32.9394 10.4688 33.2362 10.7812C33.5487 11.0781 33.705 11.4453 33.705 11.8828C33.705 12.3203 33.5487 12.6953 33.2362 13.0078C32.9394 13.3047 32.5722 13.4531 32.1347 13.4531H23.2284C22.9316 13.4531 22.6737 13.5781 22.455 13.8281C22.2362 14.0625 22.0644 14.3438 21.9394 14.6719C21.83 15 21.7753 15.3125 21.7753 15.6094V19.7109C21.6816 20.6484 21.1659 21.1562 20.2284 21.2344C19.7909 21.2344 19.4081 21.0938 19.08 20.8125C18.7675 20.5156 18.6112 20.1484 18.6112 19.7109V15.6328H18.6347C18.6347 14.8203 18.7909 14.0312 19.1034 13.2656ZM35.7225 10.0781C36.1444 10.0938 36.5037 10.25 36.8006 10.5469C37.0975 10.8281 37.2537 11.1797 37.2694 11.6016V19.7109C37.1756 20.6484 36.66 21.1562 35.7225 21.2344C35.285 21.2344 34.9022 21.0938 34.5741 20.8125C34.2616 20.5156 34.1053 20.1484 34.1053 19.7109V11.6016C34.1209 11.1641 34.285 10.8047 34.5975 10.5234C34.91 10.2266 35.285 10.0781 35.7225 10.0781ZM33.7537 7.03125C33.7537 6.59375 33.9412 6.21875 34.3162 5.90625C34.6912 5.59375 35.1444 5.4375 35.6756 5.4375C36.2069 5.4375 36.66 5.59375 37.035 5.90625C37.41 6.21875 37.5975 6.59375 37.5975 7.03125C37.5975 7.48438 37.41 7.86719 37.035 8.17969C36.66 8.49219 36.2069 8.64844 35.6756 8.64844C35.1444 8.64844 34.6912 8.49219 34.3162 8.17969C33.9412 7.86719 33.7537 7.48438 33.7537 7.03125ZM45.6853 9.96094C46.4978 9.96094 47.2947 10.0547 48.0759 10.2422C48.8728 10.4297 49.6306 10.7109 50.3494 11.0859C51.0681 11.4453 51.7009 11.9297 52.2478 12.5391C52.8103 13.1484 53.115 13.875 53.1619 14.7188V15.7031V19.7109C53.0681 20.6484 52.5525 21.1562 51.615 21.2344C51.1775 21.2344 50.7947 21.0938 50.4666 20.8125C50.1541 20.5156 49.9978 20.1484 49.9978 19.7109V18.6797V15.4453C49.9666 14.9609 49.7791 14.5625 49.4353 14.25C49.1072 13.9219 48.7322 13.6641 48.3103 13.4766C47.9041 13.2891 47.4744 13.1484 47.0213 13.0547C46.5838 12.9609 46.1384 12.9141 45.6853 12.9141C45.2322 12.9141 44.7791 12.9609 44.3259 13.0547C43.8884 13.1484 43.4588 13.2891 43.0369 13.4766C42.6306 13.6641 42.2556 13.9219 41.9119 14.25C41.5838 14.5625 41.4041 14.9609 41.3728 15.4453V18.6797V19.7109C41.2947 20.6484 40.7869 21.1562 39.8494 21.2344C39.4119 21.2344 39.0291 21.0938 38.7009 20.8125C38.3884 20.5156 38.2322 20.1484 38.2322 19.7109V15.7031V14.7188C38.2791 13.875 38.5759 13.1484 39.1228 12.5391C39.6697 11.9297 40.3025 11.4453 41.0213 11.0859C41.74 10.7109 42.49 10.4297 43.2713 10.2422C44.0681 10.0547 44.8728 9.96094 45.6853 9.96094ZM58.9762 20.9531C57.6012 20.9062 56.5622 20.5859 55.8591 19.9922C55.1559 19.3828 54.6481 18.7031 54.3356 17.9531C54.0231 17.1875 53.8669 16.4141 53.8669 15.6328C53.8669 14.8203 54.0153 14.0391 54.3122 13.2891C54.6247 12.5234 55.1325 11.8438 55.8356 11.25C56.5544 10.6406 57.4606 10.3281 58.5544 10.3125H67.4606C67.8981 10.3125 68.2653 10.4688 68.5622 10.7812C68.8747 11.0781 69.0309 11.4453 69.0309 11.8828C69.0309 12.3203 68.8747 12.6953 68.5622 13.0078C68.2653 13.3047 67.8981 13.4531 67.4606 13.4531H58.4606C58.1637 13.4531 57.9059 13.5781 57.6872 13.8281C57.4684 14.0625 57.3044 14.3438 57.195 14.6719C57.1012 14.9844 57.0544 15.2969 57.0544 15.6094C57.0544 15.9375 57.1012 16.2656 57.195 16.5938C57.3044 16.9062 57.4684 17.1875 57.6872 17.4375C57.9059 17.6719 58.1637 17.7969 58.4606 17.8125H67.4606C67.8981 17.8125 68.2653 17.9688 68.5622 18.2812C68.8747 18.5781 69.0309 18.9453 69.0309 19.3828C69.0309 19.8203 68.8747 20.1875 68.5622 20.4844C68.2653 20.7969 67.8981 20.9531 67.4606 20.9531H58.9762ZM74.3766 20.9531C73.0016 20.9062 71.9625 20.5859 71.2594 19.9922C70.5563 19.3828 70.0484 18.7031 69.7359 17.9531C69.4234 17.1875 69.2672 16.4141 69.2672 15.6328C69.2672 14.8203 69.4156 14.0391 69.7125 13.2891C70.025 12.5234 70.5328 11.8438 71.2359 11.25C71.9547 10.6406 72.8609 10.3281 73.9547 10.3125H82.8609C83.2984 10.3125 83.6656 10.4609 83.9625 10.7578C84.275 11.0391 84.4313 11.3828 84.4313 11.7891C84.4313 12.2109 84.275 12.5703 83.9625 12.8672C83.6656 13.1484 83.2984 13.2891 82.8609 13.2891H74.0953C73.7516 13.2891 73.4469 13.4062 73.1813 13.6406C72.9313 13.875 72.7438 14.1797 72.6188 14.5547C72.5094 14.9297 72.4547 15.2969 72.4547 15.6562C72.4547 16.0469 72.5094 16.4297 72.6188 16.8047C72.7438 17.1797 72.9313 17.4844 73.1813 17.7188C73.4469 17.9375 73.7516 18.0547 74.0953 18.0703H82.8609C83.2984 18.0703 83.6656 18.2109 83.9625 18.4922C84.275 18.7734 84.4313 19.1094 84.4313 19.5C84.4313 19.9062 84.275 20.25 83.9625 20.5312C83.6656 20.8125 83.2984 20.9531 82.8609 20.9531H74.3766ZM84.15 15.5859C84.15 15.8828 84.0172 16.1406 83.7516 16.3594C83.5172 16.5625 83.2203 16.6641 82.8609 16.6641H75.1969C74.8375 16.6641 74.5328 16.5625 74.2828 16.3594C74.0328 16.1406 73.9078 15.8828 73.9078 15.5859C73.9078 15.3047 74.0328 15.0547 74.2828 14.8359C74.5328 14.6328 74.8375 14.5312 75.1969 14.5312H82.8609C83.2203 14.5312 83.525 14.6406 83.775 14.8594C84.025 15.0625 84.15 15.3047 84.15 15.5859Z" fill="white"/>
</g>
<defs>
<clipPath id="clip0_12_9">
<rect width="85" height="27" fill="white"/>
</clipPath>
</defs>
</svg>
